:FULLY-SPECIFIED
:FORCE-ALL-JOINTS-BE-3DOF
:DEGREES
3058
root -1.64903 15.9803 -34.0554 1087.85 -0.360005 0.403719
lfemur -35.7419 4.04425 -3.68256
ltibia 59.6077 0 0
lfoot -8.25064 2.66311 0
ltoes -36.0001 0 0
rfemur -35.9262 -6.17079 25.7211
rtibia 60.5984 0 0
rfoot -19.5539 -28.2096 0
rtoes -7.50587 0 0
lowerback 12.6635 0.396406 -1.28649
upperback -1.31628 0.451214 1.56476
thorax -8.54647 0.323566 2.31919
lowerneck 3.45004 -8.96142 -11.5735
upperneck -2.98684 -12.267 9.28903
head -0.0866889 -6.19221 4.84697
lclavicle -2.90105e-14 1.35754e-15 0
lhumerus 13.7622 -41.2842 88.1875
lradius 68.0834 0 0
lwrist -6.06764 0 0
lhand -28.2864 391.693 0
lfingers 7.12502 0 0
lthumb -1.66255 -658.333 0
rclavicle -2.90105e-14 1.35754e-15 0
rhumerus 17.5508 44.0655 -56.2837
rradius 103.02 0 0
rwrist -44.268 0 0
rhand -5.86186 -386.006 0
rfingers 7.12502 0 0
rthumb 19.9651 304.999 0
3059
root -1.61281 15.9878 -34.0422 1087.76 0.1246 0.411799
lfemur -35.4867 3.95422 -3.74313
ltibia 59.1036 0 0
lfoot -8.6629 2.35288 0
ltoes -36.4482 0 0
rfemur -35.7152 -6.02214 25.5034
rtibia 60.5361 0 0
rfoot -19.4947 -28.0573 0
rtoes -7.8942 0 0
lowerback 12.6144 0.411873 -1.23947
upperback -1.32263 0.479004 1.55682
thorax -8.52616 0.334402 2.27824
lowerneck 3.37644 -8.85659 -11.5001
upperneck -2.88586 -12.1208 9.20274
head -0.0704881 -6.11744 4.8188
lclavicle -2.93038e-14 7.07851e-16 0
lhumerus 12.7313 -41.547 88.6013
lradius 68.2925 0 0
lwrist -5.87838 0 0
lhand -28.2801 391.836 0
lfingers 7.12502 0 0
lthumb -1.65644 -658.19 0
rclavicle -2.93038e-14 7.07851e-16 0
rhumerus 15.9511 44.5283 -57.2187
rradius 103.514 0 0
rwrist -43.9693 0 0
rhand -5.86876 -385.904 0
rfingers 7.12502 0 0
rthumb 19.9585 305.101 0
3060
root -1.5766 15.9952 -34.0291 1087.67 0.609204 0.419879
lfemur -35.2314 3.86419 -3.8037
ltibia 58.5995 0 0
lfoot -9.07516 2.04266 0
ltoes -36.8962 0 0
rfemur -35.5042 -5.87348 25.2857
rtibia 60.4737 0 0
rfoot -19.4355 -27.905 0
rtoes -8.28253 0 0
lowerback 12.5653 0.42734 -1.19244
upperback -1.32899 0.506793 1.54887
thorax -8.50585 0.345238 2.23728
lowerneck 3.30283 -8.75176 -11.4267
upperneck -2.78487 -11.9746 9.11645
head -0.0542873 -6.04268 4.79063
lclavicle -2.95971e-14 5.81659e-17 0
lhumerus 11.7004 -41.8098 89.0152
lradius 68.5016 0 0
lwrist -5.68913 0 0
lhand -28.2738 391.98 0
lfingers 7.12502 0 0
lthumb -1.65033 -658.046 0
rclavicle -2.95971e-14 5.81659e-17 0
rhumerus 14.3514 44.9911 -58.1536
rradius 104.008 0 0
rwrist -43.6707 0 0
rhand -5.87565 -385.801 0
rfingers 7.12502 0 0
rthumb 19.9519 305.203 0
3061
root -1.54038 16.0027 -34.0159 1087.59 1.09381 0.427959
lfemur -34.9761 3.77416 -3.86427
ltibia 58.0954 0 0
lfoot -9.48742 1.73244 0
ltoes -37.3442 0 0
rfemur -35.2932 -5.72483 25.068
rtibia 60.4113 0 0
rfoot -19.3763 -27.7528 0
rtoes -8.67086 0 0
lowerback 12.5161 0.442808 -1.14542
upperback -1.33534 0.534582 1.54093
thorax -8.48554 0.356074 2.19632
lowerneck 3.22923 -8.64693 -11.3533
upperneck -2.68388 -11.8283 9.03017
head -0.0380864 -5.96792 4.76246
lclavicle -2.98905e-14 -5.9152e-16 0
lhumerus 10.6694 -42.0726 89.429
lradius 68.7106 0 0
lwrist -5.49987 0 0
lhand -28.2674 392.123 0
lfingers 7.12502 0 0
lthumb -1.64421 -657.903 0
rclavicle -2.98905e-14 -5.9152e-16 0
rhumerus 12.7516 45.454 -59.0885
rradius 104.502 0 0
rwrist -43.372 0 0
rhand -5.88254 -385.699 0
rfingers 7.12502 0 0
rthumb 19.9453 305.305 0
